<?xml version="1.0" standalone="no"?>
<!DOCTYPE svg PUBLIC "-//W3C//DTD SVG 20010904//EN"
 "http://www.w3.org/TR/2001/REC-SVG-20010904/DTD/svg10.dtd">
<svg version="1.0" xmlns="http://www.w3.org/2000/svg"
 width="135.000000pt" height="40.000000pt" viewBox="0 0 135.000000 40.000000"
 preserveAspectRatio="xMidYMid meet">

<g transform="translate(0.000000,40.000000) scale(0.100000,-0.100000)"
fill="#000000" stroke="none">
<path d="M120 235 l0 -155 -30 -6 c-23 -5 -30 -12 -30 -30 0 -21 5 -24 34 -24
76 0 95 48 96 243 l0 127 -35 0 -35 0 0 -155z"/>
<path d="M282 320 c-19 -8 -21 -13 -12 -29 8 -17 15 -18 42 -10 18 5 34 9 35
9 1 0 9 -7 17 -16 22 -22 11 -34 -30 -34 -36 0 -73 -15 -86 -34 -14 -21 -8
-66 12 -86 24 -24 67 -26 98 -4 22 15 24 15 36 -2 8 -10 20 -15 30 -11 13 5
16 21 16 75 0 86 -15 131 -47 143 -30 11 -81 11 -111 -1z m91 -117 c3 -5 1
-18 -4 -30 -12 -31 -69 -33 -69 -3 0 26 61 53 73 33z"/>
<path d="M500 214 l0 -115 28 3 c26 3 27 4 30 78 3 80 14 103 46 98 19 -3 21
-11 26 -88 5 -84 5 -85 33 -88 27 -3 27 -3 28 60 1 94 9 113 44 113 l30 0 5
-85 c5 -84 5 -85 33 -88 l27 -3 0 95 c0 83 -3 99 -20 116 -24 24 -67 26 -98 4
-20 -14 -24 -14 -44 0 -28 20 -67 20 -95 1 -19 -13 -22 -13 -27 0 -3 8 -15 15
-26 15 -19 0 -20 -6 -20 -116z"/>
<path d="M928 315 c-32 -18 -52 -74 -45 -123 11 -67 72 -103 152 -88 28 6 35
12 35 30 0 22 -3 23 -52 18 -42 -4 -54 -1 -65 13 -22 31 -16 35 57 35 l70 0 0
38 c0 20 -6 44 -13 53 -30 39 -91 50 -139 24z m86 -41 c26 -25 19 -34 -30 -34
-33 0 -43 3 -38 13 24 41 42 47 68 21z"/>
<path d="M1153 320 c-26 -11 -41 -56 -26 -79 6 -9 30 -27 54 -42 24 -14 42
-30 39 -35 -3 -5 -26 -9 -52 -9 -43 1 -48 -1 -48 -22 0 -46 126 -43 157 3 25
38 8 73 -49 101 -27 13 -48 28 -48 33 0 14 23 18 54 9 30 -9 45 1 46 27 0 22
-84 31 -127 14z"/>
</g>
</svg>
