<?xml version="1.0" standalone="no"?>
<!DOCTYPE svg PUBLIC "-//W3C//DTD SVG 20010904//EN"
 "http://www.w3.org/TR/2001/REC-SVG-20010904/DTD/svg10.dtd">
<svg version="1.0" xmlns="http://www.w3.org/2000/svg"
 width="414.000000pt" height="598.000000pt" viewBox="0 0 414.000000 598.000000"
 preserveAspectRatio="xMidYMid meet">

<g transform="translate(0.000000,598.000000) scale(0.100000,-0.100000)"
fill="#000000" stroke="none">
<path d="M2983 4594 c-43 -16 -133 -88 -133 -106 0 -6 27 -40 61 -75 33 -36
58 -70 56 -76 -2 -7 -23 -12 -47 -12 -58 0 -69 -19 -44 -71 12 -25 27 -40 41
-42 12 -2 25 -12 28 -22 11 -36 46 -70 71 -70 36 0 64 18 64 40 0 29 -21 70
-36 70 -21 0 -43 42 -50 92 -6 40 -4 47 17 61 20 14 26 15 44 3 23 -15 31 -65
16 -95 -17 -31 23 -129 55 -137 24 -6 92 0 101 10 10 9 34 134 40 204 9 109
-30 192 -90 192 -10 0 -32 9 -48 21 -39 27 -94 32 -146 13z m11 -332 c12 -57
0 -69 -45 -44 -36 19 -65 65 -54 83 4 5 26 9 48 7 41 -3 42 -4 51 -46z"/>
<path d="M3016 4361 c-9 -13 11 -61 25 -61 8 0 7 5 -2 16 -10 13 -10 17 2 25
11 7 11 9 -4 9 -10 0 -15 5 -12 10 3 6 4 10 1 10 -3 0 -7 -4 -10 -9z"/>
<path d="M497 4193 c-4 -3 -7 -188 -7 -410 l0 -403 455 0 c398 0 455 2 455 15
0 13 -55 15 -435 15 l-435 0 0 355 0 354 600 1 600 0 0 -220 c0 -214 1 -220
20 -220 20 0 20 5 18 258 l-3 257 -631 3 c-347 1 -634 -1 -637 -5z m1143 -48
c0 -8 -6 -15 -14 -15 -17 0 -28 14 -19 24 12 12 33 6 33 -9z m50 0 c0 -8 -7
-15 -15 -15 -8 0 -15 7 -15 15 0 8 7 15 15 15 8 0 15 -7 15 -15z"/>
<path d="M3238 4055 c-21 -8 -75 -18 -120 -24 l-83 -10 86 4 c77 3 159 24 159
39 0 4 -1 6 -2 5 -2 0 -20 -7 -40 -14z"/>
<path d="M2886 3881 c18 -11 44 -36 59 -55 25 -32 28 -48 33 -130 4 -87 3 -96
-19 -125 -23 -31 -24 -42 -27 -189 -3 -174 5 -205 61 -246 25 -18 46 -21 168
-24 l139 -4 0 -208 0 -207 -31 -7 c-60 -12 -133 -6 -161 12 -14 9 -45 41 -68
70 -51 64 -76 77 -160 86 -67 7 -160 33 -160 44 0 4 19 23 42 42 l41 36 -19
24 c-10 13 -32 37 -47 53 l-28 30 -91 -7 c-50 -3 -121 -6 -159 -6 -64 0 -70
-2 -116 -40 -26 -21 -137 -108 -245 -192 -109 -84 -198 -158 -198 -165 0 -7 6
-10 14 -7 9 4 26 -10 46 -38 45 -60 46 -66 16 -89 l-26 -20 19 -38 c11 -20 26
-42 33 -49 12 -9 8 -72 -21 -393 l-35 -382 25 -20 c32 -27 114 -64 166 -75 38
-9 42 -8 47 12 8 32 177 840 192 919 3 15 12 27 20 27 13 0 13 -3 0 -22 -10
-14 -16 -44 -16 -76 0 -43 5 -58 25 -77 23 -24 28 -25 175 -25 l150 0 -2 -392
-3 -393 -89 -10 c-77 -9 -91 -14 -112 -38 -31 -36 -30 -62 1 -92 31 -32 59
-32 90 0 28 27 29 33 15 69 -9 26 -9 26 45 26 l55 0 0 -60 0 -60 415 0 415 0
0 475 0 475 50 0 c72 0 100 29 100 103 0 77 -20 99 -93 105 l-57 4 0 224 c0
127 -4 225 -9 229 -6 3 -12 -16 -16 -42 -3 -27 -8 -68 -11 -93 -3 -24 -15 -63
-27 -85 -17 -34 -20 -56 -18 -137 l2 -98 -40 0 c-47 0 -50 9 -17 53 21 29 46
87 46 108 0 5 -13 9 -30 9 l-30 0 0 204 0 203 89 6 c158 10 171 30 171 260 0
154 -1 166 -23 198 -37 56 -67 61 -362 57 -143 -2 -268 -7 -277 -12 -16 -7
-18 -1 -18 60 0 38 -5 86 -11 107 -12 43 -79 117 -106 117 -12 0 -8 -6 13 -19z
m4 -1946 l0 -385 -40 0 -40 0 0 385 0 385 40 0 40 0 0 -385z m590 -50 l0 -435
-50 0 c-39 0 -52 4 -60 20 -20 38 -54 48 -217 66 l-163 17 0 384 0 383 245 0
245 0 0 -435z m-600 -415 c-7 -13 -21 -20 -40 -20 -23 0 -30 4 -30 20 0 17 7
20 40 20 38 0 40 -2 30 -20z m370 0 c-10 -18 -21 -20 -129 -20 -110 0 -119 1
-124 20 -5 19 0 20 129 20 132 0 134 0 124 -20z"/>
<path d="M1403 3634 c-5 -15 71 -457 83 -475 3 -5 177 -9 386 -9 210 0 379 2
377 5 -3 2 -170 5 -372 5 l-367 1 -5 22 c-18 83 -75 388 -75 401 0 15 36 16
393 14 l392 -3 40 -207 c28 -148 43 -208 53 -208 8 0 11 7 8 18 -3 9 -21 109
-42 222 -20 113 -41 211 -46 218 -8 9 -103 12 -415 12 -357 0 -404 -2 -410
-16z m747 -14 c0 -5 -5 -10 -11 -10 -5 0 -7 5 -4 10 3 6 8 10 11 10 2 0 4 -4
4 -10z m35 0 c3 -5 -1 -10 -10 -10 -9 0 -13 5 -10 10 3 6 8 10 10 10 2 0 7 -4
10 -10z"/>
<path d="M1458 3105 l4 -25 320 0 c251 0 319 3 316 13 -11 32 -51 37 -349 37
l-296 0 5 -25z"/>
<path d="M436 3009 c-3 -34 -6 -417 -6 -850 l0 -789 415 0 415 0 0 789 c0 433
-3 816 -6 850 l-7 61 -402 0 -402 0 -7 -61z m744 -789 l0 -770 -335 0 -335 0
0 770 0 770 335 0 335 0 0 -770z"/>
<path d="M1495 2693 c-21 -21 -15 -71 14 -112 11 -15 53 -45 93 -66 40 -20
101 -55 134 -77 89 -56 108 -55 160 12 24 30 43 59 44 63 0 5 -19 31 -42 59
l-43 50 -60 -4 c-55 -4 -68 -1 -163 44 -56 26 -107 48 -112 48 -5 0 -16 -8
-25 -17z"/>
<path d="M1970 1526 c-26 -26 -63 -45 -145 -74 -98 -35 -140 -61 -124 -77 3
-3 107 -4 230 -3 l225 3 -15 82 c-16 90 -9 83 -101 98 -30 5 -40 1 -70 -29z"/>
</g>
</svg>
